<svg xmlns:svg="http://www.w3.org/2000/svg" xmlns="http://www.w3.org/2000/svg" width="1024" height="768"><style>.s0{fill-opacity:1;fill:#0f2c00;}.s1{fill-opacity:1;fill:#011e00;}.s2{fill-opacity:1;fill:#071400;}.s3{fill-opacity:1;fill:#142500;}.s4{fill-opacity:1;fill:#0c0014;}.s5{fill-opacity:1;fill:#0c2200;}.s6{fill-opacity:1;fill:#003705;}.s7{fill-opacity:1;fill:#072b0f;}</style><path d="M-42.9 118.9C-42.9 118.9 81.1 105.5 81.1 105.5 81.1 105.5 278.3 143.4 278.3 143.4 278.3 143.4 461.2 73.5 467.5 74 473.8 74.5 537.9 102.3 537.9 102.3 537.9 102.3 645.5 80 645.5 80 645.5 80 742.7 186.5 740.6 186.4 738.5 186.2 782.4 197.2 782.4 197.2 782.4 197.2 822.4 169.7 822.4 169.7 822.4 169.7 879.6 204.6 879.6 204.6 879.6 204.6 1043.9 125.7 1043.9 125.7 1043.9 125.7 1064.5 134.9 1064.5 134.9 1064.5 134.9 1054.8 286.6 1054.8 286.6 1054.8 286.6-53.4 217.2-53.4 217.2 -53.4 217.2-42.9 118.9-42.9 118.9z" class="s0"/><path d="M-41.8 225.7C-41.8 225.7 81.1 160.8 81.1 160.8 81.1 160.8 280.2 225.7 280.2 225.7 280.2 225.7 458.2-12.4 464.5-12.4 470.9-12.4 536.5 52.6 536.5 52.6 536.5 52.6 642.5-34 642.5-34 642.5-34 746.3 247.3 744.1 247.3 742 247.3 786.5 269 786.5 269 786.5 269 824.6 182.4 824.6 182.4 824.6 182.4 883.9 269 883.9 269 883.9 269 1042.8 9.3 1042.8 9.3 1042.8 9.3 1064 30.9 1064 30.9 1064 30.9 1064 463.7 1064 463.7 1064 463.7-46 507-46 507 -46 507-41.8 225.7-41.8 225.7z" style="fill-opacity:1;fill:#162400"/><path d="M-78.4 654C-78.4 654 51 648.3 51 648.3 51 648.3 260.4 660 260.4 660 260.4 660 448.2 633.8 454.9 633.9 461.6 634 530.5 643.2 530.5 643.2 530.5 643.2 642.2 634.5 642.2 634.5 642.2 634.5 750.8 671.2 748.6 671.2 746.4 671.1 793.1 674.6 793.1 674.6 793.1 674.6 833.5 664.6 833.5 664.6 833.5 664.6 895.7 676.4 895.7 676.4 895.7 676.4 1063.4 647.2 1063.4 647.2 1063.4 647.2 1085.7 650.2 1085.7 650.2 1085.7 650.2 1084.8 703.8 1084.8 703.8 1084.8 703.8-83.5 688.8-83.5 688.8 -83.5 688.8-78.4 654-78.4 654z" class="s1"/><path d="M1050.1 188.7C1050.1 188.7 927.2 229 927.2 229 927.2 229 728.1 188.7 728.1 188.7 728.1 188.7 550.2 336.6 543.8 336.6 537.5 336.6 471.8 296.2 471.8 296.2 471.8 296.2 365.9 350 365.9 350 365.9 350 262.1 175.3 264.2 175.3 266.3 175.3 221.8 161.8 221.8 161.8 221.8 161.8 183.7 215.6 183.7 215.6 183.7 215.6 124.4 161.8 124.4 161.8 124.4 161.8-34.5 323.1-34.5 323.1 -34.5 323.1-55.7 309.7-55.7 309.7 -55.7 309.7-55.7 40.9-55.7 40.9 -55.7 40.9 1054.3 14 1054.3 14 1054.3 14 1050.1 188.7 1050.1 188.7z" class="s2"/><path d="M-32.4 775.6C-32.4 775.6 90.3 767.5 90.3 767.5 90.3 767.5 289.5 770 289.5 770 289.5 770 467.1 744.9 473.4 744.8 479.8 744.7 545.5 749.5 545.5 749.5 545.5 749.5 651.3 739.7 651.3 739.7 651.3 739.7 755.5 763.9 753.4 763.9 751.3 763.9 795.8 765.2 795.8 765.2 795.8 765.2 833.8 756.5 833.8 756.5 833.8 756.5 893.2 763.5 893.2 763.5 893.2 763.5 1051.7 736.7 1051.7 736.7 1051.7 736.7 1072.9 738.3 1072.9 738.3 1072.9 738.3 1073.6 778.3 1073.6 778.3 1073.6 778.3-36.2 801.7-36.2 801.7 -36.2 801.7-32.4 775.6-32.4 775.6z" class="s3"/><path d="M-55.4 770.6C-55.4 770.6 67.3 762.5 67.3 762.5 67.3 762.5 266.5 765 266.5 765 266.5 765 444.1 739.9 450.4 739.8 456.8 739.7 522.5 744.5 522.5 744.5 522.5 744.5 628.3 734.7 628.3 734.7 628.3 734.7 732.5 758.9 730.4 758.9 728.3 758.9 772.8 760.2 772.8 760.2 772.8 760.2 810.8 751.5 810.8 751.5 810.8 751.5 870.2 758.5 870.2 758.5 870.2 758.5 1028.7 731.7 1028.7 731.7 1028.7 731.7 1049.9 733.3 1049.9 733.3 1049.9 733.3 1050.6 773.3 1050.6 773.3 1050.6 773.3-59.2 796.7-59.2 796.7 -59.2 796.7-55.4 770.6-55.4 770.6z" class="s4"/><path d="M-24.4 755.2C-24.4 755.2 98.4 747.1 98.4 747.1 98.4 747.1 297.6 755.2 297.6 755.2 297.6 755.2 475.5 725.7 481.8 725.7 488.2 725.7 553.9 733.7 553.9 733.7 553.9 733.7 659.8 723 659.8 723 659.8 723 763.6 757.8 761.5 757.8 759.3 757.8 803.8 760.5 803.8 760.5 803.8 760.5 842 749.8 842 749.8 842 749.8 901.3 760.5 901.3 760.5 901.3 760.5 1060.2 728.4 1060.2 728.4 1060.2 728.4 1081.3 731 1081.3 731 1081.3 731 1081.3 784.6 1081.3 784.6 1081.3 784.6-28.7 790-28.7 790 -28.7 790-24.4 755.2-24.4 755.2z" class="s0"/><path d="M-60.5 741.2C-60.5 741.2 68.8 733.1 68.8 733.1 68.8 733.1 278.4 741.2 278.4 741.2 278.4 741.2 465.7 711.7 472.3 711.7 479 711.7 548.2 719.7 548.2 719.7 548.2 719.7 659.6 709 659.6 709 659.6 709 768.9 743.8 766.7 743.8 764.4 743.8 811.3 746.5 811.3 746.5 811.3 746.5 851.4 735.8 851.4 735.8 851.4 735.8 913.8 746.5 913.8 746.5 913.8 746.5 1081 714.4 1081 714.4 1081 714.4 1103.3 717 1103.3 717 1103.3 717 1103.3 770.6 1103.3 770.6 1103.3 770.6-65 776-65 776 -65 776-60.5 741.2-60.5 741.2z" class="s5"/><path d="M-45.4 761.2C-45.4 761.2 77.4 753.1 77.4 753.1 77.4 753.1 276.6 761.2 276.6 761.2 276.6 761.2 454.5 731.7 460.8 731.7 467.2 731.7 532.9 739.7 532.9 739.7 532.9 739.7 638.8 729 638.8 729 638.8 729 742.6 763.8 740.5 763.8 738.3 763.8 782.8 766.5 782.8 766.5 782.8 766.5 821 755.8 821 755.8 821 755.8 880.3 766.5 880.3 766.5 880.3 766.5 1039.2 734.4 1039.2 734.4 1039.2 734.4 1060.3 737 1060.3 737 1060.3 737 1060.3 790.6 1060.3 790.6 1060.3 790.6-49.7 796-49.7 796 -49.7 796-45.4 761.2-45.4 761.2zM-45.4 744.2C-45.4 744.2 77.4 736.1 77.4 736.1 77.4 736.1 276.6 744.2 276.6 744.2 276.6 744.2 454.5 714.7 460.8 714.7 467.2 714.7 532.9 722.7 532.9 722.7 532.9 722.7 638.8 712 638.8 712 638.8 712 742.6 746.8 740.5 746.8 738.3 746.8 782.8 749.5 782.8 749.5 782.8 749.5 821 738.8 821 738.8 821 738.8 880.3 749.5 880.3 749.5 880.3 749.5 1039.2 717.4 1039.2 717.4 1039.2 717.4 1060.3 720 1060.3 720 1060.3 720 1060.3 773.6 1060.3 773.6 1060.3 773.6-49.7 779-49.7 779 -49.7 779-45.4 744.2-45.4 744.2z" class="s2"/><path d="M-21.8 778C-21.8 778 101.1 772 101.1 772 101.1 772 300.2 778 300.2 778 300.2 778 478.2 756 484.5 756 490.9 756 556.5 762 556.5 762 556.5 762 662.5 754 662.5 754 662.5 754 766.3 780 764.1 780 762 780 806.5 782 806.5 782 806.5 782 844.6 774 844.6 774 844.6 774 903.9 782 903.9 782 903.9 782 1062.8 758 1062.8 758 1062.8 758 1084 760 1084 760 1084 760 1084 800 1084 800 1084 800-26 804-26 804 -26 804-21.8 778-21.8 778z" class="s6"/><path d="M-60.4 724C-60.4 724 69 718.3 69 718.3 69 718.3 278.4 730 278.4 730 278.4 730 466.2 703.8 472.9 703.9 479.6 704 548.5 713.2 548.5 713.2 548.5 713.2 660.2 704.5 660.2 704.5 660.2 704.5 768.8 741.2 766.6 741.2 764.4 741.1 811.1 744.6 811.1 744.6 811.1 744.6 851.5 734.6 851.5 734.6 851.5 734.6 913.7 746.4 913.7 746.4 913.7 746.4 1081.4 717.2 1081.4 717.2 1081.4 717.2 1103.7 720.2 1103.7 720.2 1103.7 720.2 1102.8 773.8 1102.8 773.8 1102.8 773.8-65.5 758.8-65.5 758.8 -65.5 758.8-60.4 724-60.4 724z" class="s7"/><path d="M-31.8 409C-31.8 409 91.1 403 91.1 403 91.1 403 290.2 409 290.2 409 290.2 409 468.2 387 474.5 387 480.9 387 546.5 393 546.5 393 546.5 393 652.5 385 652.5 385 652.5 385 756.3 411 754.1 411 752 411 796.5 413 796.5 413 796.5 413 834.6 405 834.6 405 834.6 405 893.9 413 893.9 413 893.9 413 1052.8 389 1052.8 389 1052.8 389 1074 391 1074 391 1074 391 1074 431 1074 431 1074 431-36 435-36 435 -36 435-31.8 409-31.8 409z" class="s6"/><path d="M-45.4 769.6C-45.4 769.6 77.3 761.5 77.3 761.5 77.3 761.5 276.5 764 276.5 764 276.5 764 454.1 738.9 460.4 738.8 466.8 738.7 532.5 743.5 532.5 743.5 532.5 743.5 638.3 733.7 638.3 733.7 638.3 733.7 742.5 757.9 740.4 757.9 738.3 757.9 782.8 759.2 782.8 759.2 782.8 759.2 820.8 750.5 820.8 750.5 820.8 750.5 880.2 757.5 880.2 757.5 880.2 757.5 1038.7 730.7 1038.7 730.7 1038.7 730.7 1059.9 732.3 1059.9 732.3 1059.9 732.3 1060.6 772.3 1060.6 772.3 1060.6 772.3-49.2 795.7-49.2 795.7 -49.2 795.7-45.4 769.6-45.4 769.6z" class="s4"/><path d="M1014.1 762C1014.1 762 891.2 801 891.2 801 891.2 801 692.1 762 692.1 762 692.1 762 514.2 905 507.8 905 501.5 905 435.8 866 435.8 866 435.8 866 329.9 918 329.9 918 329.9 918 226.1 749 228.2 749 230.3 749 185.8 736 185.8 736 185.8 736 147.7 788 147.7 788 147.7 788 88.4 736 88.4 736 88.4 736-70.5 892-70.5 892 -70.5 892-91.7 879-91.7 879 -91.7 879-91.7 619-91.7 619 -91.7 619 1018.3 593 1018.3 593 1018.3 593 1014.1 762 1014.1 762z" class="s2"/><path d="M-66.5 66.7C-66.5 66.7 62.8 86 62.8 86 62.8 86 272.4 66.7 272.4 66.7 272.4 66.7 459.7 137.6 466.3 137.6 473 137.6 542.2 118.2 542.2 118.2 542.2 118.2 653.6 144 653.6 144 653.6 144 762.9 60.3 760.7 60.3 758.4 60.3 805.3 53.8 805.3 53.8 805.3 53.8 845.4 79.6 845.4 79.6 845.4 79.6 907.8 53.8 907.8 53.8 907.8 53.8 1075 131.1 1075 131.1 1075 131.1 1097.3 124.7 1097.3 124.7 1097.3 124.7 1097.3-4.1 1097.3-4.1 1097.3-4.1-71-17-71-17 -71-17-66.5 66.7-66.5 66.7z" class="s5"/><path d="M-64.1 358.8C-64.1 358.8 72.6 340.8 72.6 340.8 72.6 340.8 293.9 377.2 293.9 377.2 293.9 377.2 492.4 295.6 499.4 296 506.5 296.4 579.4 325.1 579.4 325.1 579.4 325.1 697.4 297.8 697.4 297.8 697.4 297.8 812.1 412.2 809.8 412.1 807.4 412 856.9 422.9 856.9 422.9 856.9 422.9 899.5 391.7 899.5 391.7 899.5 391.7 965.2 428.4 965.2 428.4 965.2 428.4 1142.5 337.4 1142.5 337.4 1142.5 337.4 1166 347 1166 347 1166 347 1165 513.8 1165 513.8 1165 513.8-69.5 467-69.5 467 -69.5 467-64.1 358.8-64.1 358.8z" class="s1"/><path d="M-22.4 774.6C-22.4 774.6 100.3 766.5 100.3 766.5 100.3 766.5 299.5 769 299.5 769 299.5 769 477.1 743.9 483.4 743.8 489.8 743.7 555.5 748.5 555.5 748.5 555.5 748.5 661.3 738.7 661.3 738.7 661.3 738.7 765.5 762.9 763.4 762.9 761.3 762.9 805.8 764.2 805.8 764.2 805.8 764.2 843.8 755.5 843.8 755.5 843.8 755.5 903.2 762.5 903.2 762.5 903.2 762.5 1061.7 735.7 1061.7 735.7 1061.7 735.7 1082.9 737.3 1082.9 737.3 1082.9 737.3 1083.6 777.3 1083.6 777.3 1083.6 777.3-26.2 800.7-26.2 800.7 -26.2 800.7-22.4 774.6-22.4 774.6z" class="s3"/><path d="M-37.4 783.2C-37.4 783.2 85.4 775.1 85.4 775.1 85.4 775.1 284.6 783.2 284.6 783.2 284.6 783.2 462.5 753.7 468.8 753.7 475.2 753.7 540.9 761.7 540.9 761.7 540.9 761.7 646.8 751 646.8 751 646.8 751 750.6 785.8 748.5 785.8 746.3 785.8 790.8 788.5 790.8 788.5 790.8 788.5 829 777.8 829 777.8 829 777.8 888.3 788.5 888.3 788.5 888.3 788.5 1047.2 756.4 1047.2 756.4 1047.2 756.4 1068.3 759 1068.3 759 1068.3 759 1068.3 812.6 1068.3 812.6 1068.3 812.6-41.7 818-41.7 818 -41.7 818-37.4 783.2-37.4 783.2z" class="s2"/><path d="M-60.4 596.2C-60.4 596.2 62.4 588.1 62.4 588.1 62.4 588.1 261.6 596.2 261.6 596.2 261.6 596.2 439.5 566.7 445.8 566.7 452.2 566.7 517.9 574.7 517.9 574.7 517.9 574.7 623.8 564 623.8 564 623.8 564 727.6 598.8 725.5 598.8 723.3 598.8 767.8 601.5 767.8 601.5 767.8 601.5 806 590.8 806 590.8 806 590.8 865.3 601.5 865.3 601.5 865.3 601.5 1024.2 569.4 1024.2 569.4 1024.2 569.4 1045.3 572 1045.3 572 1045.3 572 1045.3 625.6 1045.3 625.6 1045.3 625.6-64.7 631-64.7 631 -64.7 631-60.4 596.2-60.4 596.2z" style="fill-opacity:1;fill:#091a00"/><path d="M-52.4 522C-52.4 522 77 516.3 77 516.3 77 516.3 286.4 528 286.4 528 286.4 528 474.2 501.8 480.9 501.9 487.6 502 556.5 511.2 556.5 511.2 556.5 511.2 668.2 502.5 668.2 502.5 668.2 502.5 776.8 539.2 774.6 539.2 772.4 539.1 819.1 542.6 819.1 542.6 819.1 542.6 859.5 532.6 859.5 532.6 859.5 532.6 921.7 544.4 921.7 544.4 921.7 544.4 1089.4 515.2 1089.4 515.2 1089.4 515.2 1111.7 518.2 1111.7 518.2 1111.7 518.2 1110.8 571.8 1110.8 571.8 1110.8 571.8-57.5 556.8-57.5 556.8 -57.5 556.8-52.4 522-52.4 522z" class="s7"/><path d="M1064.1 613.9C1064.1 613.9 941.2 634.2 941.2 634.2 941.2 634.2 742.1 613.9 742.1 613.9 742.1 613.9 564.2 688.2 557.8 688.2 551.5 688.2 485.8 668 485.8 668 485.8 668 379.9 695 379.9 695 379.9 695 276.1 607.1 278.2 607.1 280.3 607.1 235.8 600.4 235.8 600.4 235.8 600.4 197.7 627.4 197.7 627.4 197.7 627.4 138.4 600.4 138.4 600.4 138.4 600.4-20.5 681.5-20.5 681.5 -20.5 681.5-41.7 674.7-41.7 674.7 -41.7 674.7-41.7 539.5-41.7 539.5 -41.7 539.5 1068.3 526 1068.3 526 1068.3 526 1064.1 613.9 1064.1 613.9z" class="s2"/><path d="M1059.8 477.2C1059.8 477.2 936.9 463.7 936.9 463.7 936.9 463.7 737.8 477.2 737.8 477.2 737.8 477.2 559.8 427.5 553.5 427.5 547.1 427.5 481.5 441.1 481.5 441.1 481.5 441.1 375.5 423 375.5 423 375.5 423 271.7 481.8 273.9 481.8 276 481.8 231.5 486.3 231.5 486.3 231.5 486.3 193.4 468.2 193.4 468.2 193.4 468.2 134.1 486.3 134.1 486.3 134.1 486.3-24.8 432-24.8 432 -24.8 432-46 436.6-46 436.6 -46 436.6-46 527-46 527 -46 527 1064 536 1064 536 1064 536 1059.8 477.2 1059.8 477.2z" style="fill-opacity:1;fill:#001b02"/><path d="M-40.5 687.2C-40.5 687.2 88.8 679.1 88.8 679.1 88.8 679.1 298.4 687.2 298.4 687.2 298.4 687.2 485.7 657.7 492.3 657.7 499 657.7 568.2 665.7 568.2 665.7 568.2 665.7 679.6 655 679.6 655 679.6 655 788.9 689.8 786.7 689.8 784.4 689.8 831.3 692.5 831.3 692.5 831.3 692.5 871.4 681.8 871.4 681.8 871.4 681.8 933.8 692.5 933.8 692.5 933.8 692.5 1101 660.4 1101 660.4 1101 660.4 1123.3 663 1123.3 663 1123.3 663 1123.3 716.6 1123.3 716.6 1123.3 716.6-45 722-45 722 -45 722-40.5 687.2-40.5 687.2z" class="s5"/></svg>